<svg width="81" height="80" viewBox="0 0 81 80" fill="none" xmlns="http://www.w3.org/2000/svg">
<path fill-rule="evenodd" clip-rule="evenodd" d="M12.2327 48.5147C9.98228 50.7651 8.71802 53.8173 8.71802 56.9999C8.71802 60.1825 9.98237 63.2348 12.2328 65.4853C14.4832 67.7357 17.5355 69 20.718 69H40.718H60.718C63.9006 69 66.9528 67.7357 69.2032 65.4853C71.4537 63.2348 72.718 60.1825 72.718 56.9999C72.718 53.8173 71.4538 50.7651 69.2033 48.5147C66.9529 46.2643 63.9006 45 60.718 45C57.5355 45 54.4831 46.2643 52.2327 48.5147C51.6631 49.0842 51.1567 49.7052 50.718 50.3666C50.2793 49.7052 49.7729 49.0842 49.2033 48.5147C46.9529 46.2643 43.9006 45 40.718 45C37.5355 45 34.4831 46.2643 32.2327 48.5147C31.6631 49.0842 31.1567 49.7052 30.718 50.3666C30.2793 49.7052 29.7729 49.0842 29.2033 48.5147C26.9529 46.2643 23.9006 45 20.718 45C17.5355 45 14.4831 46.2643 12.2327 48.5147Z" fill="#828282"/>
<path fill-rule="evenodd" clip-rule="evenodd" d="M30.1526 37.05L22.2993 26.0826L21.7429 26.8595C18.6585 31.167 17 36.332 17 41.6298V43C17 43.8606 17.0453 44.7106 17.1336 45.5477C18.2834 45.1878 19.491 44.9999 20.718 44.9999C23.9006 44.9999 26.9529 46.2642 29.2033 48.5146C29.7729 49.0842 30.2793 49.7051 30.718 50.3665C31.1567 49.7051 31.6631 49.0842 32.2327 48.5146C34.4831 46.2642 37.5355 44.9999 40.718 44.9999C43.9006 44.9999 46.9529 46.2642 49.2033 48.5146C49.7729 49.0842 50.2793 49.7051 50.718 50.3665C51.1567 49.7051 51.6631 49.0842 52.2327 48.5146C54.4831 46.2642 57.5355 44.9999 60.718 44.9999C62.14 44.9999 63.5361 45.2523 64.8462 45.7323C64.9478 44.8356 65 43.9239 65 43V41.6298C65 36.332 63.3415 31.167 60.2571 26.8595L48.9007 11L30.2474 37.05C30.2242 37.0824 30.1759 37.0824 30.1526 37.05Z" fill="#EB5757"/>
<path fill-rule="evenodd" clip-rule="evenodd" d="M29.8706 47.8229L24.3465 40.1083C24.0635 41.3076 23.918 42.5429 23.918 43.7907C23.918 44.354 23.947 44.9105 24.0037 45.4588C25.9517 46.0134 27.7458 47.0573 29.2035 48.5149C29.773 49.0845 30.2794 49.7054 30.7181 50.3668C31.1569 49.7054 31.6632 49.0845 32.2328 48.5149C34.4832 46.2645 37.5356 45.0003 40.7181 45.0003C43.9007 45.0003 46.9531 46.2645 49.2035 48.5149C49.773 49.0845 50.2794 49.7054 50.7181 50.3668C51.1569 49.7054 51.6632 49.0845 52.2328 48.5149C53.6904 47.0574 55.4844 46.0135 57.4322 45.4589C57.4889 44.9105 57.518 44.354 57.518 43.7907C57.518 40.2184 56.3251 36.7485 54.1285 33.9314L46.7181 24.4272L29.9655 47.8229C29.9422 47.8553 29.8939 47.8553 29.8706 47.8229Z" fill="#F2C94C"/>
<path fill-rule="evenodd" clip-rule="evenodd" d="M28.718 56.9999C28.718 53.8173 29.9823 50.7651 32.2327 48.5147C34.4831 46.2643 37.5355 45 40.718 45C43.9006 45 46.9529 46.2643 49.2033 48.5147C51.4538 50.7651 52.718 53.8173 52.718 56.9999C52.718 60.1825 51.4537 63.2348 49.2032 65.4853C46.9528 67.7357 43.9006 69 40.718 69C37.5355 69 34.4832 67.7357 32.2328 65.4853C29.9824 63.2348 28.718 60.1825 28.718 56.9999Z" fill="#BDBDBD"/>
</svg>
