<svg width="261" height="67" viewBox="0 0 261 67" fill="none" xmlns="http://www.w3.org/2000/svg">
<path d="M7.536 27.262C6.892 27.262 6.332 27.024 5.856 26.548C5.38 26.072 5.142 25.512 5.142 24.868V23.734C5.142 23.09 5.38 22.53 5.856 22.054C6.332 21.578 6.892 21.34 7.536 21.34H26.268C26.912 21.34 27.472 21.578 27.948 22.054C28.424 22.53 28.662 23.09 28.662 23.734V24.868C28.662 25.512 28.424 26.072 27.948 26.548C27.472 27.024 26.912 27.262 26.268 27.262H20.892C20.668 27.262 20.556 27.374 20.556 27.598V49.606C20.556 50.25 20.318 50.81 19.842 51.286C19.366 51.762 18.806 52 18.162 52H15.642C14.998 52 14.438 51.762 13.962 51.286C13.486 50.81 13.248 50.25 13.248 49.606V27.598C13.248 27.374 13.136 27.262 12.912 27.262H7.536ZM40.5073 42.004C37.0913 42.004 35.3833 43.054 35.3833 45.154C35.3833 45.91 35.6073 46.512 36.0553 46.96C36.5033 47.38 37.1053 47.59 37.8613 47.59C39.2053 47.59 40.2973 47.17 41.1373 46.33C41.9773 45.462 42.3973 44.314 42.3973 42.886V42.382C42.3973 42.13 42.2713 42.004 42.0193 42.004H40.5073ZM35.8033 52.42C33.8713 52.42 32.2753 51.804 31.0153 50.572C29.7833 49.312 29.1673 47.688 29.1673 45.7C29.1673 40.604 32.9473 38.056 40.5073 38.056H42.0193C42.2713 38.056 42.3973 37.944 42.3973 37.72V37.51C42.3973 36.446 42.1173 35.676 41.5573 35.2C41.0253 34.724 40.1153 34.486 38.8273 34.486C37.1193 34.486 35.0753 34.752 32.6953 35.284C32.1073 35.396 31.5753 35.27 31.0993 34.906C30.6513 34.542 30.4273 34.066 30.4273 33.478V33.394C30.4273 32.694 30.6373 32.064 31.0573 31.504C31.5053 30.916 32.0653 30.566 32.7373 30.454C35.2013 29.978 37.3293 29.74 39.1213 29.74C42.7893 29.74 45.3793 30.398 46.8913 31.714C48.4313 33.03 49.2013 35.214 49.2013 38.266V49.606C49.2013 50.25 48.9633 50.81 48.4873 51.286C48.0113 51.762 47.4513 52 46.8073 52H45.2533C44.5813 52 44.0073 51.776 43.5313 51.328C43.0553 50.852 42.8033 50.278 42.7753 49.606V49.144C42.7753 49.116 42.7613 49.102 42.7333 49.102C42.6773 49.102 42.6493 49.116 42.6493 49.144C40.8853 51.328 38.6033 52.42 35.8033 52.42ZM57.1016 52C56.4576 52 55.8976 51.762 55.4216 51.286C54.9736 50.81 54.7496 50.25 54.7496 49.606V22.894C54.7496 22.25 54.9736 21.69 55.4216 21.214C55.8976 20.738 56.4576 20.5 57.1016 20.5H59.1596C59.8036 20.5 60.3496 20.738 60.7976 21.214C61.2736 21.69 61.5116 22.25 61.5116 22.894V38.392C61.5116 38.42 61.5256 38.434 61.5536 38.434L61.6376 38.392L66.8876 32.008C67.8956 30.776 69.1836 30.16 70.7516 30.16H73.7756C74.2236 30.16 74.5456 30.37 74.7416 30.79C74.9656 31.21 74.9236 31.602 74.6156 31.966L67.4336 40.408C67.2936 40.576 67.2936 40.758 67.4336 40.954L74.6996 50.152C74.9796 50.544 75.0076 50.95 74.7836 51.37C74.5876 51.79 74.2516 52 73.7756 52H70.7516C69.1836 52 67.9096 51.37 66.9296 50.11L61.6376 43.222C61.6096 43.194 61.5816 43.18 61.5536 43.18C61.5256 43.18 61.5116 43.194 61.5116 43.222V49.606C61.5116 50.25 61.2736 50.81 60.7976 51.286C60.3496 51.762 59.8036 52 59.1596 52H57.1016ZM86.9153 34.318C85.6553 34.318 84.7033 34.654 84.0593 35.326C83.4153 35.97 83.0093 37.09 82.8413 38.686C82.8413 38.91 82.9393 39.022 83.1353 39.022H90.2333C90.4853 39.022 90.6113 38.896 90.6113 38.644C90.4993 35.76 89.2673 34.318 86.9153 34.318ZM87.9653 52.42C84.1573 52.42 81.2173 51.454 79.1453 49.522C77.1013 47.59 76.0793 44.776 76.0793 41.08C76.0793 37.412 76.9893 34.612 78.8093 32.68C80.6573 30.72 83.3173 29.74 86.7893 29.74C93.4533 29.74 96.8413 33.38 96.9533 40.66C96.9533 41.332 96.6873 41.906 96.1553 42.382C95.6513 42.83 95.0633 43.054 94.3913 43.054H83.1773C82.8973 43.054 82.7853 43.18 82.8413 43.432C83.0653 44.972 83.6533 46.078 84.6053 46.75C85.5853 47.394 87.0413 47.716 88.9733 47.716C90.2333 47.716 91.5913 47.534 93.0473 47.17C93.6353 47.03 94.1533 47.142 94.6013 47.506C95.0773 47.87 95.3153 48.346 95.3153 48.934V49.018C95.3153 49.718 95.0913 50.362 94.6433 50.95C94.2233 51.51 93.6773 51.846 93.0053 51.958C91.3813 52.266 89.7013 52.42 87.9653 52.42ZM123.769 42.004C120.353 42.004 118.645 43.054 118.645 45.154C118.645 45.91 118.869 46.512 119.317 46.96C119.765 47.38 120.367 47.59 121.123 47.59C122.467 47.59 123.559 47.17 124.399 46.33C125.239 45.462 125.659 44.314 125.659 42.886V42.382C125.659 42.13 125.533 42.004 125.281 42.004H123.769ZM119.065 52.42C117.133 52.42 115.537 51.804 114.277 50.572C113.045 49.312 112.429 47.688 112.429 45.7C112.429 40.604 116.209 38.056 123.769 38.056H125.281C125.533 38.056 125.659 37.944 125.659 37.72V37.51C125.659 36.446 125.379 35.676 124.819 35.2C124.287 34.724 123.377 34.486 122.089 34.486C120.381 34.486 118.337 34.752 115.957 35.284C115.369 35.396 114.837 35.27 114.361 34.906C113.913 34.542 113.689 34.066 113.689 33.478V33.394C113.689 32.694 113.899 32.064 114.319 31.504C114.767 30.916 115.327 30.566 115.999 30.454C118.463 29.978 120.591 29.74 122.383 29.74C126.051 29.74 128.641 30.398 130.153 31.714C131.693 33.03 132.463 35.214 132.463 38.266V49.606C132.463 50.25 132.225 50.81 131.749 51.286C131.273 51.762 130.713 52 130.069 52H128.515C127.843 52 127.269 51.776 126.793 51.328C126.317 50.852 126.065 50.278 126.037 49.606V49.144C126.037 49.116 126.023 49.102 125.995 49.102C125.939 49.102 125.911 49.116 125.911 49.144C124.147 51.328 121.865 52.42 119.065 52.42ZM163.338 52.42C158.746 52.42 155.134 51.062 152.502 48.346C149.87 45.63 148.554 41.738 148.554 36.67C148.554 31.686 149.828 27.822 152.376 25.078C154.924 22.306 158.48 20.92 163.044 20.92C165.228 20.92 167.132 21.074 168.756 21.382C169.428 21.494 169.974 21.83 170.394 22.39C170.814 22.95 171.024 23.58 171.024 24.28V25.624C171.024 26.212 170.786 26.674 170.31 27.01C169.834 27.346 169.316 27.444 168.756 27.304C167.16 26.884 165.536 26.674 163.884 26.674C161.364 26.674 159.39 27.528 157.962 29.236C156.562 30.944 155.862 33.422 155.862 36.67C155.862 39.862 156.618 42.34 158.13 44.104C159.642 45.868 161.658 46.75 164.178 46.75C165.858 46.75 167.496 46.54 169.092 46.12C169.652 45.98 170.17 46.078 170.646 46.414C171.15 46.75 171.402 47.212 171.402 47.8V49.06C171.402 49.76 171.178 50.39 170.73 50.95C170.31 51.51 169.764 51.846 169.092 51.958C167.44 52.266 165.522 52.42 163.338 52.42ZM187.056 42.004C183.64 42.004 181.932 43.054 181.932 45.154C181.932 45.91 182.156 46.512 182.604 46.96C183.052 47.38 183.654 47.59 184.41 47.59C185.754 47.59 186.846 47.17 187.686 46.33C188.526 45.462 188.946 44.314 188.946 42.886V42.382C188.946 42.13 188.82 42.004 188.568 42.004H187.056ZM182.352 52.42C180.42 52.42 178.824 51.804 177.564 50.572C176.332 49.312 175.716 47.688 175.716 45.7C175.716 40.604 179.496 38.056 187.056 38.056H188.568C188.82 38.056 188.946 37.944 188.946 37.72V37.51C188.946 36.446 188.666 35.676 188.106 35.2C187.574 34.724 186.664 34.486 185.376 34.486C183.668 34.486 181.624 34.752 179.244 35.284C178.656 35.396 178.124 35.27 177.648 34.906C177.2 34.542 176.976 34.066 176.976 33.478V33.394C176.976 32.694 177.186 32.064 177.606 31.504C178.054 30.916 178.614 30.566 179.286 30.454C181.75 29.978 183.878 29.74 185.67 29.74C189.338 29.74 191.928 30.398 193.44 31.714C194.98 33.03 195.75 35.214 195.75 38.266V49.606C195.75 50.25 195.512 50.81 195.036 51.286C194.56 51.762 194 52 193.356 52H191.802C191.13 52 190.556 51.776 190.08 51.328C189.604 50.852 189.352 50.278 189.324 49.606V49.144C189.324 49.116 189.31 49.102 189.282 49.102C189.226 49.102 189.198 49.116 189.198 49.144C187.434 51.328 185.152 52.42 182.352 52.42ZM203.482 52C202.838 52 202.278 51.762 201.802 51.286C201.326 50.81 201.088 50.25 201.088 49.606V32.554C201.088 31.91 201.326 31.35 201.802 30.874C202.278 30.398 202.838 30.16 203.482 30.16H205.036C205.708 30.16 206.268 30.398 206.716 30.874C207.192 31.322 207.458 31.882 207.514 32.554L207.556 32.932C207.556 32.96 207.57 32.974 207.598 32.974C207.654 32.974 207.682 32.96 207.682 32.932C209.334 30.804 211.224 29.74 213.352 29.74C214.64 29.74 215.662 29.978 216.418 30.454C217.174 30.902 217.874 31.714 218.518 32.89C218.518 32.946 218.546 32.974 218.602 32.974L218.686 32.89C220.618 30.79 222.634 29.74 224.734 29.74C227.114 29.74 228.836 30.384 229.9 31.672C230.964 32.932 231.496 35.088 231.496 38.14V49.606C231.496 50.25 231.258 50.81 230.782 51.286C230.306 51.762 229.746 52 229.102 52H227.254C226.61 52 226.05 51.762 225.574 51.286C225.098 50.81 224.86 50.25 224.86 49.606V38.56C224.86 37.048 224.692 36.054 224.356 35.578C224.02 35.074 223.39 34.822 222.466 34.822C221.822 34.822 221.192 35.088 220.576 35.62C219.988 36.152 219.694 36.67 219.694 37.174V49.606C219.694 50.25 219.456 50.81 218.98 51.286C218.504 51.762 217.944 52 217.3 52H215.452C214.808 52 214.248 51.762 213.772 51.286C213.296 50.81 213.058 50.25 213.058 49.606V38.56C213.058 37.048 212.89 36.054 212.554 35.578C212.246 35.074 211.63 34.822 210.706 34.822C210.062 34.822 209.432 35.088 208.816 35.62C208.2 36.152 207.892 36.67 207.892 37.174V49.606C207.892 50.25 207.654 50.81 207.178 51.286C206.702 51.762 206.142 52 205.498 52H203.482ZM243.449 38.476V43.684C243.449 44.608 243.869 45.462 244.709 46.246C245.577 47.002 246.557 47.38 247.649 47.38C248.937 47.38 249.959 46.862 250.715 45.826C251.471 44.762 251.849 43.18 251.849 41.08C251.849 36.88 250.449 34.78 247.649 34.78C246.557 34.78 245.577 35.172 244.709 35.956C243.869 36.712 243.449 37.552 243.449 38.476ZM239.207 61.24C238.563 61.24 238.003 61.002 237.527 60.526C237.051 60.05 236.813 59.49 236.813 58.846V32.554C236.813 31.91 237.051 31.35 237.527 30.874C238.003 30.398 238.563 30.16 239.207 30.16H240.887C241.559 30.16 242.133 30.398 242.609 30.874C243.085 31.322 243.337 31.882 243.365 32.554V32.89C243.365 32.918 243.379 32.932 243.407 32.932L243.491 32.848C245.283 30.776 247.439 29.74 249.959 29.74C252.563 29.74 254.635 30.72 256.175 32.68C257.743 34.64 258.527 37.44 258.527 41.08C258.527 44.608 257.715 47.38 256.091 49.396C254.495 51.412 252.451 52.42 249.959 52.42C247.635 52.42 245.563 51.566 243.743 49.858C243.715 49.83 243.687 49.816 243.659 49.816C243.631 49.816 243.617 49.83 243.617 49.858V58.846C243.617 59.49 243.379 60.05 242.903 60.526C242.427 61.002 241.867 61.24 241.223 61.24H239.207Z" fill="#333333"/>
<path d="M4.536 22.262C3.892 22.262 3.332 22.024 2.856 21.548C2.38 21.072 2.142 20.512 2.142 19.868V18.734C2.142 18.09 2.38 17.53 2.856 17.054C3.332 16.578 3.892 16.34 4.536 16.34H23.268C23.912 16.34 24.472 16.578 24.948 17.054C25.424 17.53 25.662 18.09 25.662 18.734V19.868C25.662 20.512 25.424 21.072 24.948 21.548C24.472 22.024 23.912 22.262 23.268 22.262H17.892C17.668 22.262 17.556 22.374 17.556 22.598V44.606C17.556 45.25 17.318 45.81 16.842 46.286C16.366 46.762 15.806 47 15.162 47H12.642C11.998 47 11.438 46.762 10.962 46.286C10.486 45.81 10.248 45.25 10.248 44.606V22.598C10.248 22.374 10.136 22.262 9.912 22.262H4.536ZM37.5073 37.004C34.0913 37.004 32.3833 38.054 32.3833 40.154C32.3833 40.91 32.6073 41.512 33.0553 41.96C33.5033 42.38 34.1053 42.59 34.8613 42.59C36.2053 42.59 37.2973 42.17 38.1373 41.33C38.9773 40.462 39.3973 39.314 39.3973 37.886V37.382C39.3973 37.13 39.2713 37.004 39.0193 37.004H37.5073ZM32.8033 47.42C30.8713 47.42 29.2753 46.804 28.0153 45.572C26.7833 44.312 26.1673 42.688 26.1673 40.7C26.1673 35.604 29.9473 33.056 37.5073 33.056H39.0193C39.2713 33.056 39.3973 32.944 39.3973 32.72V32.51C39.3973 31.446 39.1173 30.676 38.5573 30.2C38.0253 29.724 37.1153 29.486 35.8273 29.486C34.1193 29.486 32.0753 29.752 29.6953 30.284C29.1073 30.396 28.5753 30.27 28.0993 29.906C27.6513 29.542 27.4273 29.066 27.4273 28.478V28.394C27.4273 27.694 27.6373 27.064 28.0573 26.504C28.5053 25.916 29.0653 25.566 29.7373 25.454C32.2013 24.978 34.3293 24.74 36.1213 24.74C39.7893 24.74 42.3793 25.398 43.8913 26.714C45.4313 28.03 46.2013 30.214 46.2013 33.266V44.606C46.2013 45.25 45.9633 45.81 45.4873 46.286C45.0113 46.762 44.4513 47 43.8073 47H42.2533C41.5813 47 41.0073 46.776 40.5313 46.328C40.0553 45.852 39.8033 45.278 39.7753 44.606V44.144C39.7753 44.116 39.7613 44.102 39.7333 44.102C39.6773 44.102 39.6493 44.116 39.6493 44.144C37.8853 46.328 35.6033 47.42 32.8033 47.42ZM54.1016 47C53.4576 47 52.8976 46.762 52.4216 46.286C51.9736 45.81 51.7496 45.25 51.7496 44.606V17.894C51.7496 17.25 51.9736 16.69 52.4216 16.214C52.8976 15.738 53.4576 15.5 54.1016 15.5H56.1596C56.8036 15.5 57.3496 15.738 57.7976 16.214C58.2736 16.69 58.5116 17.25 58.5116 17.894V33.392C58.5116 33.42 58.5256 33.434 58.5536 33.434L58.6376 33.392L63.8876 27.008C64.8956 25.776 66.1836 25.16 67.7516 25.16H70.7756C71.2236 25.16 71.5456 25.37 71.7416 25.79C71.9656 26.21 71.9236 26.602 71.6156 26.966L64.4336 35.408C64.2936 35.576 64.2936 35.758 64.4336 35.954L71.6996 45.152C71.9796 45.544 72.0076 45.95 71.7836 46.37C71.5876 46.79 71.2516 47 70.7756 47H67.7516C66.1836 47 64.9096 46.37 63.9296 45.11L58.6376 38.222C58.6096 38.194 58.5816 38.18 58.5536 38.18C58.5256 38.18 58.5116 38.194 58.5116 38.222V44.606C58.5116 45.25 58.2736 45.81 57.7976 46.286C57.3496 46.762 56.8036 47 56.1596 47H54.1016ZM83.9153 29.318C82.6553 29.318 81.7033 29.654 81.0593 30.326C80.4153 30.97 80.0093 32.09 79.8413 33.686C79.8413 33.91 79.9393 34.022 80.1353 34.022H87.2333C87.4853 34.022 87.6113 33.896 87.6113 33.644C87.4993 30.76 86.2673 29.318 83.9153 29.318ZM84.9653 47.42C81.1573 47.42 78.2173 46.454 76.1453 44.522C74.1013 42.59 73.0793 39.776 73.0793 36.08C73.0793 32.412 73.9893 29.612 75.8093 27.68C77.6573 25.72 80.3173 24.74 83.7893 24.74C90.4533 24.74 93.8413 28.38 93.9533 35.66C93.9533 36.332 93.6873 36.906 93.1553 37.382C92.6513 37.83 92.0633 38.054 91.3913 38.054H80.1773C79.8973 38.054 79.7853 38.18 79.8413 38.432C80.0653 39.972 80.6533 41.078 81.6053 41.75C82.5853 42.394 84.0413 42.716 85.9733 42.716C87.2333 42.716 88.5913 42.534 90.0473 42.17C90.6353 42.03 91.1533 42.142 91.6013 42.506C92.0773 42.87 92.3153 43.346 92.3153 43.934V44.018C92.3153 44.718 92.0913 45.362 91.6433 45.95C91.2233 46.51 90.6773 46.846 90.0053 46.958C88.3813 47.266 86.7013 47.42 84.9653 47.42ZM120.769 37.004C117.353 37.004 115.645 38.054 115.645 40.154C115.645 40.91 115.869 41.512 116.317 41.96C116.765 42.38 117.367 42.59 118.123 42.59C119.467 42.59 120.559 42.17 121.399 41.33C122.239 40.462 122.659 39.314 122.659 37.886V37.382C122.659 37.13 122.533 37.004 122.281 37.004H120.769ZM116.065 47.42C114.133 47.42 112.537 46.804 111.277 45.572C110.045 44.312 109.429 42.688 109.429 40.7C109.429 35.604 113.209 33.056 120.769 33.056H122.281C122.533 33.056 122.659 32.944 122.659 32.72V32.51C122.659 31.446 122.379 30.676 121.819 30.2C121.287 29.724 120.377 29.486 119.089 29.486C117.381 29.486 115.337 29.752 112.957 30.284C112.369 30.396 111.837 30.27 111.361 29.906C110.913 29.542 110.689 29.066 110.689 28.478V28.394C110.689 27.694 110.899 27.064 111.319 26.504C111.767 25.916 112.327 25.566 112.999 25.454C115.463 24.978 117.591 24.74 119.383 24.74C123.051 24.74 125.641 25.398 127.153 26.714C128.693 28.03 129.463 30.214 129.463 33.266V44.606C129.463 45.25 129.225 45.81 128.749 46.286C128.273 46.762 127.713 47 127.069 47H125.515C124.843 47 124.269 46.776 123.793 46.328C123.317 45.852 123.065 45.278 123.037 44.606V44.144C123.037 44.116 123.023 44.102 122.995 44.102C122.939 44.102 122.911 44.116 122.911 44.144C121.147 46.328 118.865 47.42 116.065 47.42ZM160.338 47.42C155.746 47.42 152.134 46.062 149.502 43.346C146.87 40.63 145.554 36.738 145.554 31.67C145.554 26.686 146.828 22.822 149.376 20.078C151.924 17.306 155.48 15.92 160.044 15.92C162.228 15.92 164.132 16.074 165.756 16.382C166.428 16.494 166.974 16.83 167.394 17.39C167.814 17.95 168.024 18.58 168.024 19.28V20.624C168.024 21.212 167.786 21.674 167.31 22.01C166.834 22.346 166.316 22.444 165.756 22.304C164.16 21.884 162.536 21.674 160.884 21.674C158.364 21.674 156.39 22.528 154.962 24.236C153.562 25.944 152.862 28.422 152.862 31.67C152.862 34.862 153.618 37.34 155.13 39.104C156.642 40.868 158.658 41.75 161.178 41.75C162.858 41.75 164.496 41.54 166.092 41.12C166.652 40.98 167.17 41.078 167.646 41.414C168.15 41.75 168.402 42.212 168.402 42.8V44.06C168.402 44.76 168.178 45.39 167.73 45.95C167.31 46.51 166.764 46.846 166.092 46.958C164.44 47.266 162.522 47.42 160.338 47.42ZM184.056 37.004C180.64 37.004 178.932 38.054 178.932 40.154C178.932 40.91 179.156 41.512 179.604 41.96C180.052 42.38 180.654 42.59 181.41 42.59C182.754 42.59 183.846 42.17 184.686 41.33C185.526 40.462 185.946 39.314 185.946 37.886V37.382C185.946 37.13 185.82 37.004 185.568 37.004H184.056ZM179.352 47.42C177.42 47.42 175.824 46.804 174.564 45.572C173.332 44.312 172.716 42.688 172.716 40.7C172.716 35.604 176.496 33.056 184.056 33.056H185.568C185.82 33.056 185.946 32.944 185.946 32.72V32.51C185.946 31.446 185.666 30.676 185.106 30.2C184.574 29.724 183.664 29.486 182.376 29.486C180.668 29.486 178.624 29.752 176.244 30.284C175.656 30.396 175.124 30.27 174.648 29.906C174.2 29.542 173.976 29.066 173.976 28.478V28.394C173.976 27.694 174.186 27.064 174.606 26.504C175.054 25.916 175.614 25.566 176.286 25.454C178.75 24.978 180.878 24.74 182.67 24.74C186.338 24.74 188.928 25.398 190.44 26.714C191.98 28.03 192.75 30.214 192.75 33.266V44.606C192.75 45.25 192.512 45.81 192.036 46.286C191.56 46.762 191 47 190.356 47H188.802C188.13 47 187.556 46.776 187.08 46.328C186.604 45.852 186.352 45.278 186.324 44.606V44.144C186.324 44.116 186.31 44.102 186.282 44.102C186.226 44.102 186.198 44.116 186.198 44.144C184.434 46.328 182.152 47.42 179.352 47.42ZM200.482 47C199.838 47 199.278 46.762 198.802 46.286C198.326 45.81 198.088 45.25 198.088 44.606V27.554C198.088 26.91 198.326 26.35 198.802 25.874C199.278 25.398 199.838 25.16 200.482 25.16H202.036C202.708 25.16 203.268 25.398 203.716 25.874C204.192 26.322 204.458 26.882 204.514 27.554L204.556 27.932C204.556 27.96 204.57 27.974 204.598 27.974C204.654 27.974 204.682 27.96 204.682 27.932C206.334 25.804 208.224 24.74 210.352 24.74C211.64 24.74 212.662 24.978 213.418 25.454C214.174 25.902 214.874 26.714 215.518 27.89C215.518 27.946 215.546 27.974 215.602 27.974L215.686 27.89C217.618 25.79 219.634 24.74 221.734 24.74C224.114 24.74 225.836 25.384 226.9 26.672C227.964 27.932 228.496 30.088 228.496 33.14V44.606C228.496 45.25 228.258 45.81 227.782 46.286C227.306 46.762 226.746 47 226.102 47H224.254C223.61 47 223.05 46.762 222.574 46.286C222.098 45.81 221.86 45.25 221.86 44.606V33.56C221.86 32.048 221.692 31.054 221.356 30.578C221.02 30.074 220.39 29.822 219.466 29.822C218.822 29.822 218.192 30.088 217.576 30.62C216.988 31.152 216.694 31.67 216.694 32.174V44.606C216.694 45.25 216.456 45.81 215.98 46.286C215.504 46.762 214.944 47 214.3 47H212.452C211.808 47 211.248 46.762 210.772 46.286C210.296 45.81 210.058 45.25 210.058 44.606V33.56C210.058 32.048 209.89 31.054 209.554 30.578C209.246 30.074 208.63 29.822 207.706 29.822C207.062 29.822 206.432 30.088 205.816 30.62C205.2 31.152 204.892 31.67 204.892 32.174V44.606C204.892 45.25 204.654 45.81 204.178 46.286C203.702 46.762 203.142 47 202.498 47H200.482ZM240.449 33.476V38.684C240.449 39.608 240.869 40.462 241.709 41.246C242.577 42.002 243.557 42.38 244.649 42.38C245.937 42.38 246.959 41.862 247.715 40.826C248.471 39.762 248.849 38.18 248.849 36.08C248.849 31.88 247.449 29.78 244.649 29.78C243.557 29.78 242.577 30.172 241.709 30.956C240.869 31.712 240.449 32.552 240.449 33.476ZM236.207 56.24C235.563 56.24 235.003 56.002 234.527 55.526C234.051 55.05 233.813 54.49 233.813 53.846V27.554C233.813 26.91 234.051 26.35 234.527 25.874C235.003 25.398 235.563 25.16 236.207 25.16H237.887C238.559 25.16 239.133 25.398 239.609 25.874C240.085 26.322 240.337 26.882 240.365 27.554V27.89C240.365 27.918 240.379 27.932 240.407 27.932L240.491 27.848C242.283 25.776 244.439 24.74 246.959 24.74C249.563 24.74 251.635 25.72 253.175 27.68C254.743 29.64 255.527 32.44 255.527 36.08C255.527 39.608 254.715 42.38 253.091 44.396C251.495 46.412 249.451 47.42 246.959 47.42C244.635 47.42 242.563 46.566 240.743 44.858C240.715 44.83 240.687 44.816 240.659 44.816C240.631 44.816 240.617 44.83 240.617 44.858V53.846C240.617 54.49 240.379 55.05 239.903 55.526C239.427 56.002 238.867 56.24 238.223 56.24H236.207Z" fill="#F5D8A6"/>
</svg>
